<!DOCTYPE svg PUBLIC "-//W3C//DTD SVG 1.1//EN" "http://www.w3.org/Graphics/SVG/1.1/DTD/svg11.dtd">
<!-- Uploaded to: SVG Repo, www.svgrepo.com, Transformed by: SVG Repo Mixer Tools -->
<svg height="256px" width="256px" version="1.1" id="Layer_1" xmlns="http://www.w3.org/2000/svg" xmlns:xlink="http://www.w3.org/1999/xlink" viewBox="-39.26 -39.26 471.12 471.12" xml:space="preserve" fill="#000000" stroke="#000000" stroke-width="0.003925980000000001">
<g id="SVGRepo_bgCarrier" stroke-width="0" transform="translate(0,0), scale(1)"/>
<g id="SVGRepo_tracerCarrier" stroke-linecap="round" stroke-linejoin="round" stroke="#CCCCCC" stroke-width="3.140784"/>
<g id="SVGRepo_iconCarrier"> <g> <path style="fill:#FFFFFF;" d="M190.998,219.216h44.089c6.012-19.911,14.093-37.107,23.596-50.36 C231.467,178.618,207.935,196.331,190.998,219.216z"/> <path style="fill:#FFFFFF;" d="M162.812,294.853h60.638c0.646-19.071,2.715-37.172,6.206-53.851h-51.976 C169.406,257.487,164.234,275.653,162.812,294.853z"/> <path style="fill:#FFFFFF;" d="M162.812,316.638c1.422,18.877,6.465,37.236,14.804,54.044h52.299 c-3.556-17.067-5.883-35.362-6.4-54.044H162.812z"/> <path style="fill:#FFFFFF;" d="M296.954,162.78c-14.675,6.788-29.026,26.958-38.917,56.436h38.917V162.78z"/> <path style="fill:#FFFFFF;" d="M296.954,241.002h-45.059c-3.62,16.162-6.012,34.263-6.723,53.851h51.782V241.002z"/> <path style="fill:#FFFFFF;" d="M296.954,370.747v-54.044h-51.588c0.646,18.877,2.909,37.172,6.723,54.044H296.954z"/> <path style="fill:#FFFFFF;" d="M370.457,316.638h-51.588v54.044h40.986c1.487,0,2.844-0.323,4.073-0.84 C367.612,353.293,369.875,335.192,370.457,316.638z"/> <path style="fill:#FFFFFF;" d="M318.804,162.78v56.307h38.917C347.83,189.802,333.479,169.697,318.804,162.78z"/> <path style="fill:#FFFFFF;" d="M318.804,294.853h51.782c-0.646-19.653-3.038-37.689-6.723-53.851h-45.059L318.804,294.853 L318.804,294.853z"/> <path style="fill:#FFFFFF;" d="M370.78,174.61c-4.461-2.069-8.986-4.073-13.576-5.689c5.042,6.982,9.503,15.063,13.576,24.048 V174.61z"/> </g> <path style="fill:#a6bfce;" d="M370.78,32.711c0-6.012-4.848-10.925-10.925-10.925H32.743c-6.012,0-10.925,4.848-10.925,10.925 v49.067H370.78L370.78,32.711L370.78,32.711z"/> <path style="fill:#FFFFFF;" d="M155.184,182.432c0,7.499-8.275,13.834-16.097,9.568l-35.232-19.006L68.622,192 c-8.792,4.267-16.097-2.651-16.097-9.568v-78.804H21.818v173.64h56.178c6.012,0,10.925,4.848,10.925,10.925 s-4.913,10.861-10.925,10.861H21.818v23.79H56.21c6.012,0,10.925,4.849,10.925,10.925s-4.848,10.925-10.925,10.925H21.818v15.127 c0,6.012,4.848,10.925,10.925,10.925h121.018c-8.598-20.493-13.123-42.602-13.123-64.97c0-92.251,75.119-167.37,167.37-167.37 c21.527,0,42.99,4.267,62.836,12.283v-47.127H155.184V182.432L155.184,182.432z"/> <path style="fill:#ada794;" d="M370.521,199.111c-18.36-10.796-39.693-17.131-62.578-17.131 c-68.202,0-123.798,55.531-123.798,123.798c0,23.79,6.788,46.028,18.489,64.905h167.887V199.111z"/> <g> <path style="fill:#000000;" d="M255.58,42.602h-27.41c-6.012,0-10.925,4.848-10.925,10.925s4.848,10.925,10.925,10.925h27.41 c6.012,0,10.925-4.848,10.925-10.925S261.592,42.602,255.58,42.602z"/> <path style="fill:#000000;" d="M340.848,42.602h-27.41c-6.012,0-10.925,4.848-10.925,10.925s4.849,10.925,10.925,10.925h27.41 c6.012,0,10.925-4.848,10.925-10.925S346.925,42.602,340.848,42.602z"/> </g> <path style="fill:#ada794;" d="M108.962,151.079l24.372,13.123v-60.574H74.311v60.574l24.372-13.123 C101.851,149.269,105.729,149.269,108.962,151.079z"/> <path style="fill:#000000;" d="M359.855,0H32.743C14.707,0,0.032,14.675,0.032,32.711v327.111c0,18.101,14.675,32.776,32.711,32.776 h327.111c18.036,0,32.711-14.675,32.711-32.711V32.711C392.566,14.675,377.891,0,359.855,0z M177.681,370.747 c-8.339-16.873-13.446-35.232-14.804-54.044h60.574c0.646,18.683,2.844,36.913,6.4,54.044H177.681z M162.812,294.853 c1.487-19.265,6.594-37.43,14.804-53.851h51.976c-3.491,16.679-5.56,34.78-6.206,53.851H162.812L162.812,294.853z M190.998,219.216 c17.002-22.885,40.469-40.598,67.685-50.36c-9.568,13.317-17.648,30.448-23.596,50.36H190.998z M296.954,370.747h-44.865 c-3.814-16.937-6.077-35.232-6.723-54.044h51.588V370.747z M296.954,294.853h-51.782c0.646-19.653,3.038-37.689,6.723-53.851h45.059 V294.853z M296.954,219.216h-38.917c9.891-29.414,24.372-49.519,38.917-56.436V219.216z M363.992,369.907 c-1.228,0.517-2.65,0.84-4.073,0.84h-41.051v-54.044h51.588C369.875,335.192,367.612,353.293,363.992,369.907z M318.804,294.853 v-53.851h45.059c3.62,16.162,6.012,34.263,6.723,53.851H318.804L318.804,294.853z M318.804,219.216v-56.307 c14.675,6.788,29.026,26.958,38.917,56.307H318.804z M370.78,192.84c-4.073-8.986-8.598-17.067-13.576-24.048 c4.655,1.681,9.18,3.62,13.576,5.689V192.84z M370.78,150.691c-19.846-8.016-41.244-12.283-62.836-12.283 c-92.251,0-167.37,75.119-167.37,167.37c0,22.303,4.59,44.541,13.123,64.97H32.743c-6.012,0-10.925-4.848-10.925-10.925V344.63 H56.21c6.012,0,10.925-4.848,10.925-10.925c0-6.012-4.848-10.925-10.925-10.925H21.818v-23.725h56.178 c6.012,0,10.925-4.848,10.925-10.925c0-6.012-4.848-10.925-10.925-10.925H21.818V103.628h30.707v78.869 c0,6.982,7.24,13.834,16.097,9.568l35.232-19.006l35.232,19.006c7.887,4.267,16.097-2.133,16.097-9.568v-78.869H370.78V150.691 L370.78,150.691z M74.311,164.202v-60.574h59.022v60.574l-24.372-13.123c-3.232-1.745-7.111-1.745-10.343,0L74.311,164.202z M370.78,81.778H21.818V32.711c0-6.012,4.848-10.925,10.925-10.925h327.111c6.012,0,10.925,4.848,10.925,10.925V81.778 L370.78,81.778z"/> </g>
</svg>